<?xml version="1.0" encoding="utf-8"?>
<!-- Generator: Adobe Illustrator 18.0.0, SVG Export Plug-In . SVG Version: 6.00 Build 0)  -->
<!DOCTYPE svg PUBLIC "-//W3C//DTD SVG 1.1//EN" "http://www.w3.org/Graphics/SVG/1.1/DTD/svg11.dtd">
<svg version="1.1" id="Layer_1" xmlns="http://www.w3.org/2000/svg" xmlns:xlink="http://www.w3.org/1999/xlink" x="0px" y="0px"
	 viewBox="0 0 216 216" enable-background="new 0 0 216 216" xml:space="preserve">
<path fill="#8710C6" d="M34.2,70.9c0-0.5,0-1-0.1-1.5c0-0.5-0.1-1-0.2-1.4c-0.1-0.4-0.3-0.8-0.6-1.1c-0.3-0.3-0.6-0.5-1-0.6
	c-0.3-0.1-0.5-0.1-0.8-0.2c-0.3,0-0.6-0.1-0.8-0.1c-0.1,0-0.3-0.1-0.3-0.2c-0.1-0.1-0.1-0.3-0.1-0.4s0-0.3,0.1-0.4
	c0.1-0.1,0.2-0.2,0.3-0.2c0.8,0,1.5,0,2.2,0.1c0.6,0,1.4,0.1,2.3,0.1c0.4,0,0.8,0,1.2,0c0.4,0,0.9,0,1.4-0.1c0.5,0,0.9,0,1.4-0.1
	c0.4,0,0.8,0,1.2,0c0.9,0,1.9,0.1,3,0.2c1,0.2,2,0.4,2.9,0.9c0.9,0.4,1.6,1,2.2,1.8c0.6,0.8,0.8,1.7,0.8,2.9c0,0.7-0.1,1.4-0.3,1.9
	c-0.2,0.6-0.5,1-0.9,1.4c-0.4,0.4-0.8,0.8-1.4,1.1c-0.5,0.3-1.1,0.6-1.7,0.8c-0.2,0.1-0.3,0.2-0.3,0.3c0,0.1,0.1,0.2,0.3,0.3
	c0.9,0.3,1.8,0.6,2.5,1c0.7,0.4,1.4,0.8,1.9,1.3c0.5,0.5,0.9,1.1,1.2,1.8c0.3,0.7,0.4,1.5,0.4,2.4c0,1.2-0.2,2.3-0.7,3.1
	c-0.4,0.8-1,1.5-1.8,1.9c-0.7,0.5-1.6,0.8-2.5,1c-0.9,0.2-1.9,0.3-2.9,0.3c-0.5,0-1,0-1.5,0c-0.6,0-1.1,0-1.7-0.1
	c-0.6,0-1.2,0-1.8-0.1c-0.6,0-1.2,0-1.7,0c-0.5,0-1,0-1.4,0c-0.4,0-0.8,0-1.2,0.1c-0.4,0-0.8,0.1-1.2,0.1c-0.4,0-0.8,0.1-1.4,0.1
	c-0.2,0-0.3,0-0.4-0.1c-0.1-0.1-0.1-0.3-0.2-0.4c0-0.1,0-0.3,0.1-0.4c0.1-0.1,0.2-0.2,0.4-0.3c0.6-0.1,1.1-0.2,1.5-0.3
	s0.8-0.3,1-0.6c0.3-0.3,0.5-0.6,0.6-1c0.1-0.4,0.2-0.9,0.2-1.5V70.9z M38.1,74.8c0,0.2,0.1,0.5,0.2,0.6c0.1,0.2,0.4,0.3,0.7,0.3h0.7
	c0.8,0,1.5-0.1,2.2-0.2s1.2-0.4,1.7-0.7c0.5-0.4,0.9-0.8,1.1-1.5c0.3-0.6,0.4-1.4,0.4-2.4c0-1.7-0.4-2.8-1.2-3.5
	c-0.8-0.7-2-1.1-3.6-1.1H39c-0.5,0-0.7,0.1-0.8,0.4s-0.1,0.7-0.1,1.3V74.8z M38.1,82c0,1.3,0,2.3,0.1,3.1c0.1,0.8,0.3,1.3,0.6,1.7
	s0.7,0.6,1.2,0.7c0.5,0.1,1.3,0.1,2.2,0.1c1.4,0,2.5-0.4,3.1-1.2c0.6-0.8,1-2,1-3.6c0-1.2-0.2-2.1-0.5-2.8c-0.3-0.7-0.8-1.3-1.3-1.7
	c-0.6-0.4-1.2-0.7-2-0.8c-0.8-0.2-1.6-0.2-2.4-0.2h-0.7c-0.5,0-0.8,0.2-1,0.5c-0.2,0.3-0.2,0.7-0.2,1.2V82z"/>
<path fill="#8710C6" d="M65.7,85.2c0,0.8,0.1,1.4,0.2,1.8c0.2,0.3,0.5,0.5,0.9,0.5c0.3,0,0.5,0,0.6-0.1c0.2-0.1,0.4-0.2,0.7-0.4
	c0.1,0,0.1,0,0.2,0c0.1,0,0.2,0.1,0.2,0.2c0.1,0.1,0.1,0.2,0.1,0.3s0,0.2-0.1,0.3c-0.9,1.1-2,1.7-3.3,1.7c-0.7,0-1.3-0.2-1.8-0.6
	c-0.5-0.4-0.9-0.8-1.1-1.3c0-0.1-0.1-0.1-0.2,0c-0.6,0.6-1.4,1-2.2,1.4c-0.8,0.4-1.9,0.5-3.1,0.5c-1.4,0-2.4-0.4-3.2-1.1
	c-0.7-0.7-1.1-1.8-1.1-3.1c0-1.7,0.8-3.1,2.4-4c1.6-0.9,3.9-1.4,7-1.4c0,0,0.1-0.1,0.1-0.2c0-0.1,0-0.4,0-0.8v-1
	c0-0.6,0-1.2-0.1-1.7c-0.1-0.5-0.3-1-0.5-1.4c-0.2-0.4-0.5-0.7-1-0.9c-0.4-0.2-0.9-0.3-1.5-0.3c-0.9,0-1.6,0.2-2.2,0.5
	c-0.6,0.3-0.8,0.8-0.8,1.3c0,0.3,0.1,0.5,0.3,0.8c0.2,0.3,0.3,0.5,0.3,0.8c0,0.3-0.2,0.7-0.5,1c-0.3,0.3-0.7,0.5-1.2,0.5
	c-0.6,0-1.1-0.2-1.4-0.5c-0.3-0.3-0.4-0.8-0.4-1.3c0-0.6,0.2-1.2,0.5-1.7c0.3-0.5,0.8-1,1.4-1.4c0.6-0.4,1.2-0.7,2-0.9
	c0.8-0.2,1.6-0.3,2.4-0.3c1.9,0,3.4,0.4,4.5,1.3c1.1,0.9,1.7,2.4,1.7,4.4V85.2z M62.3,81.6c0-0.3,0-0.4,0-0.5c0-0.1-0.1-0.1-0.2-0.1
	c-2,0.2-3.4,0.6-4.4,1.2c-0.9,0.7-1.4,1.5-1.4,2.5c0,0.7,0.2,1.3,0.5,1.8c0.4,0.5,1,0.7,1.8,0.7c0.6,0,1.1-0.1,1.7-0.3
	c0.6-0.2,1.2-0.5,1.6-0.9c0.2-0.2,0.3-0.4,0.3-0.6V81.6z"/>
<path fill="#8710C6" d="M73.4,70.8c0-1,0-1.9-0.1-2.5c0-0.6-0.2-1.1-0.4-1.4c-0.2-0.3-0.5-0.6-0.9-0.7s-0.9-0.2-1.6-0.3
	c-0.1,0-0.2-0.1-0.3-0.2c-0.1-0.1-0.1-0.2-0.1-0.4c0-0.1,0-0.2,0.1-0.4c0.1-0.1,0.2-0.2,0.3-0.2c0.7,0,1.6-0.1,2.6-0.2
	c1-0.1,2-0.3,2.9-0.5c0.3-0.1,0.6-0.1,0.7,0.1c0.1,0.1,0.2,0.3,0.2,0.4v20.2c0,0.6,0,1.1,0,1.5c0,0.4,0.1,0.7,0.3,1
	c0.2,0.3,0.4,0.5,0.8,0.6c0.3,0.1,0.8,0.3,1.5,0.3c0.1,0,0.3,0.1,0.3,0.2c0.1,0.1,0.1,0.2,0.1,0.4c0,0.1,0,0.2-0.1,0.3
	c-0.1,0.1-0.2,0.2-0.3,0.2c-0.6,0-1.2,0-1.9-0.1c-0.7-0.1-1.4-0.1-2.2-0.1c-0.8,0-1.5,0-2.3,0.1c-0.7,0.1-1.5,0.1-2.3,0.1
	c-0.1,0-0.2-0.1-0.3-0.2c-0.1-0.1-0.1-0.2-0.1-0.3c0-0.1,0-0.3,0.1-0.4c0.1-0.1,0.2-0.2,0.3-0.2c0.7-0.1,1.2-0.2,1.6-0.3
	s0.6-0.3,0.8-0.6s0.3-0.6,0.3-0.9s0-0.8,0-1.4V70.8z"/>
<path fill="#8710C6" d="M86.7,83.5c0,1.3,0.1,2.3,0.5,3c0.3,0.6,0.8,1,1.6,1c0.6,0,1.1-0.1,1.6-0.3c0.5-0.2,0.9-0.3,1.1-0.5
	c0.1,0,0.2-0.1,0.3,0c0.1,0,0.2,0.1,0.3,0.2c0.1,0.1,0.1,0.2,0.2,0.3c0,0.1,0,0.2,0,0.3c-0.5,0.7-1.1,1.3-1.8,1.6
	c-0.7,0.3-1.6,0.5-2.6,0.5c-1.6,0-2.8-0.4-3.5-1.1s-1-1.9-1-3.4v-9.3c0-0.3,0-0.5,0-0.7s-0.1-0.3-0.2-0.4c-0.1-0.1-0.3-0.1-0.6-0.1
	c-0.3,0-0.7,0-1.2,0c-0.1,0-0.1-0.1-0.2-0.2c0-0.1-0.1-0.3-0.1-0.5c0-0.2,0-0.3,0.1-0.5c0-0.1,0.1-0.2,0.2-0.2
	c0.6,0,1.1-0.1,1.5-0.3c0.4-0.1,0.8-0.3,1.1-0.6c0.3-0.3,0.5-0.7,0.7-1.2c0.2-0.5,0.3-1.1,0.4-1.9c0-0.1,0.1-0.3,0.3-0.3
	c0.2-0.1,0.3-0.1,0.5-0.1c0.2,0,0.4,0,0.5,0.1c0.2,0.1,0.2,0.1,0.2,0.2v3.1c0,0.4,0,0.6,0.1,0.7c0,0.1,0.2,0.1,0.4,0.1h3.7
	c0.2,0,0.3,0.1,0.3,0.3c0,0.2,0.1,0.4,0.1,0.5s0,0.3-0.1,0.5c-0.1,0.2-0.2,0.3-0.4,0.3H87c-0.2,0-0.3,0-0.3,0.1c0,0.1,0,0.4,0,0.9
	V83.5z"/>
<path fill="#8710C6" d="M99.3,84.7c0,0.6,0,1.1,0,1.5c0,0.4,0.1,0.7,0.3,1c0.1,0.3,0.4,0.5,0.7,0.6c0.3,0.1,0.7,0.3,1.3,0.3
	c0.1,0,0.3,0.1,0.3,0.2s0.1,0.2,0.1,0.4c0,0.1,0,0.2-0.1,0.3s-0.2,0.2-0.3,0.2c-0.4,0-1,0-1.7-0.1c-0.7-0.1-1.4-0.1-2.1-0.1
	c-0.8,0-1.5,0-2.2,0.1c-0.7,0.1-1.4,0.1-2.1,0.1c-0.1,0-0.2-0.1-0.3-0.2C93,89,93,88.9,93,88.8c0-0.1,0-0.3,0.1-0.4
	c0.1-0.1,0.2-0.2,0.3-0.2c0.6-0.1,1.1-0.2,1.5-0.3c0.3-0.1,0.6-0.3,0.8-0.6c0.2-0.3,0.2-0.6,0.3-0.9s0-0.8,0-1.4v-5.8
	c0-1,0-1.9-0.1-2.5c0-0.6-0.2-1.1-0.3-1.4c-0.2-0.3-0.4-0.5-0.8-0.7c-0.3-0.1-0.8-0.2-1.4-0.3c-0.1,0-0.3-0.1-0.3-0.2
	C93,74,93,73.9,93,73.7s0-0.2,0.1-0.4c0.1-0.1,0.2-0.2,0.3-0.2c0.2,0,0.5,0,0.9-0.1c0.3,0,0.7-0.1,1.1-0.1c0.4,0,0.8-0.1,1.2-0.1
	c0.4-0.1,0.8-0.1,1.1-0.2c0.3,0,0.5-0.1,0.6-0.2c0.2-0.1,0.3-0.1,0.4-0.1c0.3,0,0.5,0.1,0.6,0.3c0.1,0.2,0.1,0.3,0.1,0.5V84.7z
	 M97.4,68.8c-0.6,0-1.1-0.2-1.5-0.6c-0.4-0.4-0.6-0.8-0.6-1.4c0-0.6,0.2-1,0.6-1.4c0.4-0.4,0.9-0.6,1.5-0.6c0.6,0,1,0.2,1.4,0.6
	c0.4,0.4,0.6,0.9,0.6,1.4c0,0.5-0.2,1-0.5,1.4C98.4,68.6,97.9,68.8,97.4,68.8z"/>
<path fill="#8710C6" d="M109.6,84.7c0,0.6,0,1.1,0,1.5c0,0.4,0.1,0.7,0.3,1c0.1,0.3,0.4,0.5,0.7,0.6s0.8,0.3,1.3,0.3
	c0.1,0,0.3,0.1,0.3,0.2s0.1,0.2,0.1,0.4c0,0.1,0,0.2-0.1,0.3s-0.2,0.2-0.3,0.2c-0.5,0-1.1,0-1.8-0.1c-0.7-0.1-1.4-0.1-2.1-0.1
	c-0.8,0-1.5,0-2.2,0.1c-0.7,0.1-1.4,0.1-2,0.1c-0.1,0-0.2-0.1-0.3-0.2s-0.1-0.2-0.1-0.3c0-0.1,0-0.3,0.1-0.4s0.2-0.2,0.3-0.2
	c0.6-0.1,1.1-0.2,1.4-0.3c0.3-0.1,0.6-0.3,0.7-0.6s0.2-0.6,0.3-0.9c0-0.4,0-0.8,0-1.4v-5.3c0-1.1,0-2,0-2.7c0-0.7-0.1-1.2-0.3-1.5
	c-0.1-0.4-0.4-0.6-0.7-0.7c-0.3-0.1-0.7-0.2-1.3-0.2c-0.1,0-0.2,0-0.3-0.1c-0.1-0.1-0.1-0.2-0.1-0.3c0-0.1,0-0.2,0.1-0.3
	c0.1-0.1,0.2-0.2,0.3-0.2c0.4,0,1-0.1,1.8-0.3c0.8-0.1,1.6-0.3,2.5-0.6c0,0,0.1,0,0.3-0.1c0.1,0,0.2,0,0.3,0c0.2,0,0.4,0.1,0.6,0.3
	c0.2,0.2,0.2,0.4,0.2,0.7l-0.1,1.8c0,0.1,0,0.1,0.1,0c0.1-0.2,0.3-0.4,0.6-0.8c0.3-0.3,0.6-0.7,1.1-1c0.4-0.3,1-0.6,1.6-0.9
	c0.6-0.3,1.4-0.4,2.2-0.4c1.5,0,2.7,0.3,3.5,0.9c0.9,0.6,1.5,1.5,2,2.6c0.1-0.3,0.3-0.6,0.7-1c0.3-0.4,0.8-0.8,1.3-1.2
	c0.5-0.4,1.1-0.7,1.8-1c0.7-0.3,1.4-0.4,2.2-0.4c1.2,0,2.1,0.2,2.8,0.5c0.7,0.3,1.3,0.8,1.7,1.4c0.4,0.6,0.7,1.3,0.8,2.1
	c0.1,0.8,0.2,1.7,0.2,2.7v5.7c0,0.6,0,1.1,0,1.5c0,0.4,0.1,0.7,0.2,1c0.1,0.3,0.3,0.5,0.6,0.6c0.3,0.1,0.6,0.3,1.2,0.3
	c0.1,0,0.3,0.1,0.3,0.2s0.1,0.2,0.1,0.4c0,0.1,0,0.2-0.1,0.3s-0.2,0.2-0.3,0.2c-0.3,0-0.8,0-1.5-0.1c-0.7-0.1-1.4-0.1-2.1-0.1
	c-0.8,0-1.5,0-2.2,0.1c-0.7,0.1-1.3,0.1-1.9,0.1c-0.1,0-0.2-0.1-0.3-0.2s-0.1-0.2-0.1-0.3c0-0.1,0-0.3,0.1-0.4s0.2-0.2,0.3-0.2
	c0.6-0.1,1-0.2,1.3-0.3c0.3-0.1,0.5-0.3,0.7-0.6c0.1-0.3,0.2-0.6,0.3-0.9c0-0.4,0-0.8,0-1.4v-4.6c0-0.6,0-1.3-0.1-2
	c0-0.7-0.2-1.3-0.4-1.9c-0.2-0.6-0.5-1-0.9-1.4c-0.4-0.4-1-0.6-1.7-0.6c-0.7,0-1.3,0.2-1.9,0.5c-0.6,0.3-1.1,0.7-1.5,1.2
	c-0.4,0.5-0.8,1-1,1.6s-0.4,1.1-0.4,1.6v5.5c0,0.7,0,1.3,0,1.7c0,0.4,0.1,0.8,0.2,1c0.1,0.2,0.3,0.4,0.6,0.5
	c0.3,0.1,0.6,0.2,1.2,0.3c0.1,0,0.3,0.1,0.3,0.2c0.1,0.1,0.1,0.2,0.1,0.4c0,0.1,0,0.2-0.1,0.3c-0.1,0.1-0.2,0.2-0.3,0.2
	c-0.3,0-0.8,0-1.5-0.1c-0.7-0.1-1.4-0.1-2.1-0.1c-0.8,0-1.5,0-2.2,0.1c-0.7,0.1-1.3,0.1-1.8,0.1c-0.1,0-0.2-0.1-0.3-0.2
	c-0.1-0.1-0.1-0.2-0.1-0.3c0-0.1,0-0.3,0.1-0.4c0.1-0.1,0.2-0.2,0.3-0.2c0.5-0.1,0.9-0.2,1.2-0.3s0.5-0.3,0.6-0.5
	c0.1-0.2,0.2-0.5,0.2-0.9c0-0.4,0-0.9,0-1.5v-4.6c0-0.6,0-1.3-0.1-2c-0.1-0.7-0.2-1.3-0.4-1.9c-0.2-0.6-0.5-1-1-1.4
	c-0.4-0.4-1-0.6-1.8-0.6c-0.8,0-1.5,0.2-2.1,0.5c-0.6,0.3-1.1,0.7-1.4,1.2c-0.4,0.5-0.6,1-0.8,1.6c-0.2,0.6-0.3,1.2-0.3,1.7V84.7z"
	/>
<path fill="#8710C6" d="M153.5,80.4c0,1.5-0.2,2.8-0.6,3.9c-0.4,1.1-1,2.1-1.7,2.8c-0.8,0.8-1.7,1.4-2.7,1.7
	c-1.1,0.4-2.2,0.6-3.5,0.6c-1.1,0-2.2-0.2-3.1-0.6c-1-0.4-1.8-0.9-2.5-1.7c-0.7-0.7-1.2-1.7-1.7-2.8c-0.4-1.1-0.6-2.4-0.6-3.9
	c0-1.2,0.2-2.3,0.6-3.4c0.4-1,1-1.9,1.7-2.6c0.7-0.7,1.6-1.3,2.6-1.7c1-0.4,2.2-0.6,3.4-0.6c1.2,0,2.3,0.2,3.3,0.5s1.9,0.9,2.6,1.6
	c0.7,0.7,1.3,1.5,1.7,2.5C153.3,77.9,153.5,79,153.5,80.4z M149.7,80.8c0-0.9-0.1-1.8-0.2-2.7c-0.1-0.9-0.3-1.6-0.6-2.3
	c-0.3-0.7-0.7-1.2-1.3-1.6c-0.6-0.4-1.3-0.6-2.1-0.6c-1,0-1.7,0.2-2.3,0.6c-0.6,0.4-1.1,1-1.4,1.6c-0.3,0.7-0.6,1.5-0.7,2.3
	c-0.1,0.9-0.2,1.8-0.2,2.7c0,0.8,0.1,1.7,0.2,2.5c0.1,0.9,0.3,1.6,0.7,2.3c0.3,0.7,0.8,1.3,1.4,1.7c0.6,0.5,1.3,0.7,2.2,0.7
	c0.9,0,1.7-0.2,2.3-0.6c0.6-0.4,1-1,1.3-1.7c0.3-0.7,0.5-1.5,0.6-2.4C149.7,82.5,149.7,81.7,149.7,80.8z"/>
<path fill="#8710C6" d="M161.9,84.7c0,0.6,0,1.1,0.1,1.5c0,0.4,0.2,0.7,0.4,1c0.2,0.3,0.6,0.5,1,0.6s1.1,0.3,2,0.3
	c0.1,0,0.3,0.1,0.3,0.2c0.1,0.1,0.1,0.2,0.1,0.4c0,0.1,0,0.2-0.1,0.3c-0.1,0.1-0.2,0.2-0.3,0.2c-1,0-1.9,0-2.7-0.1
	c-0.8-0.1-1.5-0.1-2.3-0.1c-0.8,0-1.5,0-2.3,0.1c-0.8,0.1-1.5,0.1-2.3,0.1c-0.1,0-0.2-0.1-0.3-0.2s-0.1-0.2-0.1-0.3
	c0-0.1,0-0.3,0.1-0.4s0.2-0.2,0.3-0.2c0.7-0.1,1.2-0.2,1.6-0.3s0.6-0.3,0.8-0.6c0.2-0.3,0.3-0.6,0.3-0.9s0.1-0.8,0.1-1.4v-5.3
	c0-1.2,0-2.1-0.1-2.8c0-0.7-0.2-1.2-0.3-1.6c-0.2-0.4-0.5-0.6-0.8-0.7s-0.9-0.2-1.6-0.3c-0.1,0-0.2-0.1-0.3-0.2
	c-0.1-0.1-0.1-0.2-0.1-0.4s0-0.2,0.1-0.4c0.1-0.1,0.2-0.2,0.3-0.2c0.5,0,1.1-0.1,2-0.2c0.9-0.1,1.7-0.2,2.6-0.5
	c0.3-0.1,0.6-0.1,0.8,0c0.2,0.1,0.3,0.3,0.3,0.6l-0.1,2.3c0,0,0,0.1,0,0.1c0,0,0.1,0,0.1-0.1c0.5-1,1.1-1.8,1.9-2.4
	c0.7-0.6,1.7-0.9,2.9-0.9c1,0,1.8,0.3,2.2,0.8c0.5,0.5,0.7,1.1,0.7,1.9c0,0.4-0.2,0.8-0.5,1.1c-0.3,0.3-0.8,0.5-1.3,0.5
	c-0.6,0-0.9-0.1-1.2-0.4c-0.2-0.3-0.3-0.6-0.3-0.9c0-0.3-0.1-0.6-0.2-0.8c-0.1-0.2-0.4-0.3-0.8-0.3c-0.5,0-0.9,0.1-1.2,0.4
	c-0.4,0.3-0.7,0.7-1,1.1c-0.3,0.4-0.5,0.8-0.6,1.3c-0.1,0.4-0.2,0.8-0.2,1V84.7z"/>
<path fill="#8710C6" d="M174.6,79.9c-0.1,0-0.2,0-0.2,0.1c0,0.1,0,0.2,0,0.3c0,1.2,0.1,2.3,0.4,3.2c0.3,0.9,0.7,1.6,1.2,2.1
	s1.1,0.9,1.8,1.2c0.7,0.2,1.4,0.4,2.2,0.4c0.8,0,1.6-0.1,2.4-0.2c0.8-0.1,1.4-0.4,2-0.9c0.1-0.1,0.2-0.1,0.4-0.1s0.2,0.1,0.3,0.2
	c0.1,0.1,0.1,0.2,0.2,0.3c0,0.1,0,0.2-0.1,0.3c-0.8,1-1.6,1.7-2.6,2.1c-1,0.4-2.1,0.6-3.6,0.6c-1.4,0-2.7-0.2-3.7-0.6
	s-1.9-1-2.6-1.8c-0.7-0.8-1.2-1.7-1.5-2.7c-0.3-1-0.5-2.2-0.5-3.4c0-1.2,0.2-2.3,0.6-3.3c0.4-1.1,1-2,1.7-2.7
	c0.7-0.8,1.6-1.4,2.6-1.8c1-0.5,2.1-0.7,3.3-0.7c1,0,1.9,0.2,2.8,0.5c0.8,0.3,1.5,0.8,2.1,1.4c0.6,0.6,1,1.3,1.3,2.2
	c0.3,0.9,0.5,1.8,0.5,2.8c0,0.5-0.2,0.8-0.5,0.8H174.6z M181.2,78.6c0.3,0,0.5-0.1,0.6-0.4c0-0.2,0.1-0.5,0.1-0.9
	c0-0.5-0.1-1-0.2-1.5c-0.2-0.5-0.4-0.9-0.7-1.2c-0.3-0.4-0.6-0.6-1-0.9c-0.4-0.2-0.9-0.3-1.4-0.3c-0.6,0-1.2,0.1-1.7,0.3
	c-0.5,0.2-0.9,0.5-1.2,0.9c-0.3,0.4-0.6,0.8-0.7,1.3c-0.2,0.5-0.3,1-0.4,1.6c0,0.3-0.1,0.5-0.1,0.7c0,0.2,0.1,0.3,0.2,0.3H181.2z"/>
<path fill="#9A6CAD" d="M46.1,136.1c0-0.5,0-1-0.1-1.5c0-0.5-0.1-1-0.2-1.4c-0.1-0.4-0.3-0.8-0.6-1.1c-0.3-0.3-0.6-0.5-1-0.6
	c-0.3-0.1-0.5-0.1-0.8-0.2c-0.3,0-0.6-0.1-0.8-0.1c-0.1,0-0.3-0.1-0.3-0.2c-0.1-0.1-0.1-0.3-0.1-0.4c0-0.1,0-0.3,0.1-0.4
	c0.1-0.1,0.2-0.2,0.3-0.2c0.8,0,1.5,0,2.2,0.1s1.4,0.1,2.3,0.1c0.4,0,0.8,0,1.2,0c0.4,0,0.9,0,1.4-0.1c0.5,0,0.9,0,1.4-0.1
	c0.4,0,0.8,0,1.2,0c0.9,0,1.9,0.1,3,0.2c1,0.2,2,0.5,2.9,0.9c0.9,0.4,1.6,1,2.2,1.8c0.6,0.8,0.8,1.7,0.8,2.9c0,0.7-0.1,1.4-0.3,1.9
	c-0.2,0.6-0.5,1-0.9,1.4c-0.4,0.4-0.8,0.8-1.4,1.1c-0.5,0.3-1.1,0.6-1.7,0.8c-0.2,0.1-0.3,0.2-0.3,0.3c0,0.1,0.1,0.2,0.3,0.3
	c0.9,0.3,1.8,0.6,2.5,1c0.7,0.4,1.4,0.8,1.9,1.3s0.9,1.1,1.2,1.8c0.3,0.7,0.4,1.5,0.4,2.4c0,1.2-0.2,2.3-0.7,3.1
	c-0.4,0.8-1,1.5-1.8,1.9c-0.7,0.5-1.6,0.8-2.5,1c-0.9,0.2-1.9,0.3-2.9,0.3c-0.5,0-1,0-1.5,0c-0.6,0-1.1,0-1.7-0.1
	c-0.6,0-1.2,0-1.8-0.1c-0.6,0-1.2,0-1.7,0c-0.5,0-1,0-1.4,0c-0.4,0-0.8,0-1.2,0.1c-0.4,0-0.8,0.1-1.2,0.1s-0.8,0.1-1.4,0.1
	c-0.2,0-0.3,0-0.4-0.1c-0.1-0.1-0.1-0.3-0.2-0.4c0-0.1,0-0.3,0.1-0.4c0.1-0.1,0.2-0.2,0.4-0.3c0.6-0.1,1.1-0.2,1.5-0.3
	s0.8-0.3,1-0.6c0.3-0.3,0.5-0.6,0.6-1s0.2-0.9,0.2-1.5V136.1z M50.1,140c0,0.2,0.1,0.5,0.2,0.6c0.1,0.2,0.4,0.3,0.7,0.3h0.7
	c0.8,0,1.5-0.1,2.2-0.2s1.2-0.4,1.7-0.7c0.5-0.4,0.9-0.8,1.1-1.5c0.3-0.6,0.4-1.4,0.4-2.4c0-1.7-0.4-2.8-1.2-3.5s-2-1.1-3.6-1.1H51
	c-0.5,0-0.7,0.1-0.8,0.4s-0.1,0.7-0.1,1.3V140z M50.1,147.2c0,1.3,0,2.3,0.1,3.1s0.3,1.3,0.6,1.7c0.3,0.4,0.7,0.6,1.2,0.7
	c0.5,0.1,1.3,0.1,2.2,0.1c1.4,0,2.5-0.4,3.1-1.2c0.6-0.8,1-2,1-3.6c0-1.2-0.2-2.1-0.5-2.8s-0.8-1.3-1.3-1.7c-0.6-0.4-1.2-0.7-2-0.8
	c-0.8-0.2-1.6-0.2-2.4-0.2h-0.7c-0.5,0-0.8,0.2-1,0.5c-0.2,0.3-0.2,0.7-0.2,1.2V147.2z"/>
<path fill="#9A6CAD" d="M77.6,150.4c0,0.8,0.1,1.4,0.2,1.8c0.2,0.3,0.5,0.5,0.9,0.5c0.3,0,0.5,0,0.6-0.1c0.2-0.1,0.4-0.2,0.7-0.4
	c0.1,0,0.1,0,0.2,0c0.1,0,0.2,0.1,0.2,0.2c0.1,0.1,0.1,0.2,0.1,0.3c0,0.1,0,0.2-0.1,0.3c-0.9,1.1-2,1.7-3.3,1.7
	c-0.7,0-1.3-0.2-1.8-0.6c-0.5-0.4-0.9-0.8-1.1-1.3c0-0.1-0.1-0.1-0.2,0c-0.6,0.6-1.4,1-2.2,1.4c-0.8,0.4-1.9,0.5-3.1,0.5
	c-1.4,0-2.4-0.4-3.2-1.1c-0.7-0.7-1.1-1.8-1.1-3.1c0-1.7,0.8-3.1,2.4-4s3.9-1.4,7-1.4c0,0,0.1-0.1,0.1-0.2c0-0.1,0-0.4,0-0.8v-1
	c0-0.6,0-1.2-0.1-1.7c-0.1-0.5-0.3-1-0.5-1.4c-0.2-0.4-0.5-0.7-1-0.9c-0.4-0.2-0.9-0.3-1.5-0.3c-0.9,0-1.6,0.2-2.2,0.5
	c-0.6,0.3-0.8,0.8-0.8,1.4c0,0.3,0.1,0.5,0.3,0.8c0.2,0.3,0.3,0.5,0.3,0.8c0,0.3-0.2,0.7-0.5,1c-0.3,0.3-0.7,0.5-1.2,0.5
	c-0.6,0-1.1-0.2-1.4-0.5c-0.3-0.3-0.4-0.8-0.4-1.3c0-0.6,0.2-1.2,0.5-1.7c0.3-0.5,0.8-1,1.4-1.4c0.6-0.4,1.2-0.7,2-0.9
	c0.8-0.2,1.6-0.3,2.4-0.3c1.9,0,3.4,0.4,4.5,1.3c1.1,0.9,1.7,2.4,1.7,4.4V150.4z M74.3,146.8c0-0.3,0-0.4,0-0.5
	c0-0.1-0.1-0.1-0.2-0.1c-2,0.2-3.4,0.6-4.4,1.2c-0.9,0.7-1.4,1.5-1.4,2.5c0,0.7,0.2,1.3,0.5,1.8c0.4,0.5,1,0.7,1.8,0.7
	c0.6,0,1.1-0.1,1.7-0.3c0.6-0.2,1.2-0.5,1.6-0.9c0.2-0.2,0.3-0.4,0.3-0.6V146.8z"/>
<path fill="#9A6CAD" d="M100.6,154.5c-0.4,0-0.8,0-1.2-0.1c-0.4,0-0.8,0-1.2,0c-0.5,0-1,0-1.4,0.1c-0.5,0-0.9,0.1-1.3,0.1
	c-0.2,0-0.3-0.1-0.4-0.2c-0.1-0.1-0.1-0.2-0.1-0.3c-0.2-1-0.5-1.9-1-2.8c-0.4-0.9-1-1.6-1.5-2.3c-0.6-0.7-1.2-1.2-1.9-1.6
	s-1.3-0.6-2-0.6v2.8c0,0.7,0,1.3,0,1.7c0,0.5,0.1,0.8,0.2,1.1c0.1,0.3,0.3,0.5,0.6,0.7c0.3,0.2,0.7,0.3,1.3,0.4
	c0.1,0,0.3,0.1,0.3,0.2c0.1,0.1,0.1,0.2,0.1,0.4c0,0.1,0,0.2-0.1,0.3c-0.1,0.1-0.2,0.2-0.3,0.2c-0.7,0-1.3,0-1.8-0.1
	c-0.6-0.1-1.2-0.1-1.9-0.1c-0.8,0-1.5,0-2.3,0.1c-0.7,0.1-1.5,0.1-2.3,0.1c-0.1,0-0.2-0.1-0.3-0.2c-0.1-0.1-0.1-0.2-0.1-0.3
	c0-0.1,0-0.3,0.1-0.4c0.1-0.1,0.2-0.2,0.3-0.2c0.7-0.1,1.2-0.2,1.6-0.3c0.4-0.1,0.6-0.3,0.8-0.6c0.2-0.3,0.3-0.6,0.3-0.9
	c0-0.4,0-0.8,0-1.4V136c0-1,0-1.9-0.1-2.5c0-0.6-0.2-1.1-0.4-1.4c-0.2-0.3-0.5-0.6-1-0.7c-0.4-0.1-1-0.2-1.8-0.3
	c-0.1,0-0.2-0.1-0.3-0.2c-0.1-0.1-0.1-0.2-0.1-0.4c0-0.1,0-0.2,0.1-0.4c0.1-0.1,0.2-0.2,0.3-0.2c0.9,0,1.8-0.1,2.9-0.2
	c1-0.1,2-0.3,2.9-0.5c0.3-0.1,0.6-0.1,0.7,0.1c0.1,0.1,0.2,0.3,0.2,0.4v15.3c0.5-0.3,0.9-0.6,1.3-1c0.4-0.4,0.8-0.7,1.1-1.1
	c0.3-0.4,0.6-0.8,0.9-1.1c0.3-0.4,0.5-0.7,0.8-0.9c0.5-0.6,0.7-1.1,0.6-1.3c-0.1-0.3-0.5-0.4-1.2-0.5c-0.1,0-0.2-0.1-0.3-0.2
	c-0.1-0.1-0.1-0.2-0.1-0.4c0-0.1,0-0.3,0.1-0.4c0.1-0.1,0.2-0.2,0.3-0.2c0.4,0,0.7,0,1,0c0.3,0,0.5,0.1,0.8,0.1
	c0.2,0,0.4,0.1,0.7,0.1c0.2,0,0.5,0,0.8,0c0.6,0,1.1,0,1.7-0.1c0.6-0.1,1.1-0.1,1.7-0.1c0.1,0,0.2,0.1,0.3,0.2
	c0.1,0.1,0.1,0.2,0.1,0.4c0,0.1,0,0.2-0.1,0.3c-0.1,0.1-0.1,0.2-0.3,0.2c-0.5,0-0.9,0.1-1.2,0.2c-0.3,0.1-0.6,0.2-0.9,0.4
	c-0.3,0.2-0.5,0.4-0.8,0.6c-0.2,0.2-0.5,0.5-0.9,0.8c-0.2,0.2-0.5,0.5-0.9,0.8c-0.4,0.3-0.8,0.7-1.2,1.1s-0.8,0.7-1.2,1.1
	s-0.7,0.6-1,0.8c-0.1,0.1-0.1,0.1-0.1,0.2c0,0.1,0.1,0.1,0.1,0.1c1,0,1.8,0.2,2.4,0.5c0.6,0.3,1.2,0.6,1.6,1s0.8,0.9,1.1,1.4
	c0.3,0.5,0.6,1.1,0.9,1.6c0.3,0.6,0.6,1.1,1,1.7s0.8,1,1.4,1.5c0.2,0.1,0.4,0.2,0.6,0.3s0.5,0.1,0.8,0.1c0.1,0,0.3,0.1,0.3,0.2
	c0.1,0.1,0.1,0.3,0.1,0.4c0,0.1,0,0.2-0.1,0.3C100.8,154.4,100.7,154.5,100.6,154.5z"/>
<path fill="#9A6CAD" d="M106.2,145.1c-0.1,0-0.2,0-0.2,0.1c0,0.1,0,0.2,0,0.3c0,1.2,0.1,2.3,0.4,3.2c0.3,0.9,0.7,1.6,1.2,2.1
	c0.5,0.5,1.1,0.9,1.8,1.2c0.7,0.2,1.4,0.4,2.2,0.4c0.8,0,1.6-0.1,2.4-0.2c0.8-0.1,1.4-0.4,2-0.9c0.1-0.1,0.2-0.1,0.4-0.1
	c0.1,0,0.2,0.1,0.3,0.2c0.1,0.1,0.1,0.2,0.2,0.3c0,0.1,0,0.2-0.1,0.3c-0.8,1-1.6,1.7-2.6,2.1c-1,0.4-2.1,0.6-3.6,0.6
	c-1.4,0-2.7-0.2-3.7-0.6s-1.9-1-2.6-1.8c-0.7-0.8-1.2-1.7-1.5-2.7s-0.5-2.2-0.5-3.4c0-1.2,0.2-2.3,0.6-3.3c0.4-1.1,1-2,1.7-2.7
	c0.7-0.8,1.6-1.4,2.6-1.8c1-0.5,2.1-0.7,3.3-0.7c1,0,1.9,0.2,2.8,0.5c0.8,0.3,1.5,0.8,2.1,1.4c0.6,0.6,1,1.3,1.3,2.2
	c0.3,0.9,0.5,1.8,0.5,2.8c0,0.5-0.2,0.8-0.5,0.8H106.2z M112.8,143.8c0.3,0,0.5-0.1,0.6-0.4s0.1-0.5,0.1-0.9c0-0.5-0.1-1-0.2-1.5
	s-0.4-0.9-0.7-1.2c-0.3-0.4-0.6-0.6-1-0.9c-0.4-0.2-0.9-0.3-1.4-0.3c-0.6,0-1.2,0.1-1.7,0.3c-0.5,0.2-0.9,0.5-1.2,0.9
	c-0.3,0.4-0.6,0.8-0.7,1.3s-0.3,1-0.4,1.6c0,0.3-0.1,0.5-0.1,0.7s0.1,0.3,0.2,0.3H112.8z"/>
<path fill="#9A6CAD" d="M125.3,149.9c0,0.6,0,1.1,0.1,1.5s0.2,0.7,0.4,1c0.2,0.3,0.6,0.5,1,0.6c0.5,0.1,1.1,0.3,2,0.3
	c0.1,0,0.3,0.1,0.3,0.2c0.1,0.1,0.1,0.2,0.1,0.4c0,0.1,0,0.2-0.1,0.3c-0.1,0.1-0.2,0.2-0.3,0.2c-1,0-1.9,0-2.7-0.1s-1.5-0.1-2.3-0.1
	c-0.8,0-1.5,0-2.3,0.1s-1.5,0.1-2.3,0.1c-0.1,0-0.2-0.1-0.3-0.2c-0.1-0.1-0.1-0.2-0.1-0.3c0-0.1,0-0.3,0.1-0.4
	c0.1-0.1,0.2-0.2,0.3-0.2c0.7-0.1,1.2-0.2,1.6-0.3c0.4-0.1,0.6-0.3,0.8-0.6c0.2-0.3,0.3-0.6,0.3-0.9s0.1-0.8,0.1-1.4v-5.3
	c0-1.2,0-2.1-0.1-2.8c0-0.7-0.2-1.2-0.3-1.6c-0.2-0.4-0.5-0.6-0.8-0.7s-0.9-0.2-1.6-0.3c-0.1,0-0.2-0.1-0.3-0.2
	c-0.1-0.1-0.1-0.2-0.1-0.4s0-0.2,0.1-0.4c0.1-0.1,0.2-0.2,0.3-0.2c0.5,0,1.1-0.1,2-0.2c0.9-0.1,1.7-0.2,2.6-0.5
	c0.3-0.1,0.6-0.1,0.8,0c0.2,0.1,0.3,0.3,0.3,0.6l-0.1,2.3c0,0,0,0.1,0,0.1c0,0,0.1,0,0.1-0.1c0.5-1,1.1-1.8,1.9-2.4
	c0.7-0.6,1.7-0.9,2.9-0.9c1,0,1.8,0.3,2.2,0.8c0.5,0.5,0.7,1.1,0.7,1.9c0,0.4-0.2,0.8-0.5,1.1c-0.3,0.3-0.8,0.5-1.3,0.5
	c-0.6,0-0.9-0.1-1.2-0.4c-0.2-0.3-0.3-0.6-0.3-0.9c0-0.3-0.1-0.6-0.2-0.8c-0.1-0.2-0.4-0.3-0.8-0.3c-0.5,0-0.9,0.2-1.2,0.5
	c-0.4,0.3-0.7,0.7-1,1.1c-0.3,0.4-0.5,0.8-0.6,1.3c-0.1,0.4-0.2,0.8-0.2,1V149.9z"/>
<path fill="#9A6CAD" d="M139.5,149.9c0,0.6,0,1.1,0,1.5c0,0.4,0.1,0.7,0.3,1c0.1,0.3,0.4,0.5,0.7,0.6c0.3,0.1,0.7,0.3,1.3,0.3
	c0.1,0,0.3,0.1,0.3,0.2c0.1,0.1,0.1,0.2,0.1,0.4c0,0.1,0,0.2-0.1,0.3c-0.1,0.1-0.2,0.2-0.3,0.2c-0.4,0-1,0-1.7-0.1s-1.4-0.1-2.1-0.1
	c-0.8,0-1.5,0-2.2,0.1s-1.4,0.1-2.1,0.1c-0.1,0-0.2-0.1-0.3-0.2c-0.1-0.1-0.1-0.2-0.1-0.3c0-0.1,0-0.3,0.1-0.4
	c0.1-0.1,0.2-0.2,0.3-0.2c0.6-0.1,1.1-0.2,1.5-0.3c0.3-0.1,0.6-0.3,0.8-0.6c0.2-0.3,0.2-0.6,0.3-0.9c0-0.4,0-0.8,0-1.4v-5.8
	c0-1,0-1.9-0.1-2.5s-0.2-1.1-0.3-1.4s-0.4-0.5-0.8-0.7s-0.8-0.2-1.4-0.3c-0.1,0-0.3-0.1-0.3-0.2c-0.1-0.1-0.1-0.2-0.1-0.4
	s0-0.2,0.1-0.4c0.1-0.1,0.2-0.2,0.3-0.2c0.2,0,0.5,0,0.9-0.1c0.3,0,0.7-0.1,1.1-0.1s0.8-0.1,1.2-0.1c0.4-0.1,0.8-0.1,1.1-0.2
	c0.3,0,0.5-0.1,0.6-0.2c0.2-0.1,0.3-0.1,0.4-0.1c0.3,0,0.5,0.1,0.6,0.3s0.1,0.3,0.1,0.5V149.9z M137.6,134c-0.6,0-1.1-0.2-1.5-0.6
	c-0.4-0.4-0.6-0.8-0.6-1.4c0-0.6,0.2-1,0.6-1.4c0.4-0.4,0.9-0.6,1.5-0.6c0.6,0,1,0.2,1.4,0.6c0.4,0.4,0.6,0.9,0.6,1.4
	c0,0.5-0.2,1-0.5,1.3C138.6,133.8,138.2,134,137.6,134z"/>
<path fill="#9A6CAD" d="M148.3,145.1c-0.1,0-0.2,0-0.2,0.1c0,0.1,0,0.2,0,0.3c0,1.2,0.1,2.3,0.4,3.2c0.3,0.9,0.7,1.6,1.2,2.1
	s1.1,0.9,1.8,1.2c0.7,0.2,1.4,0.4,2.2,0.4c0.8,0,1.6-0.1,2.4-0.2c0.8-0.1,1.4-0.4,2-0.9c0.1-0.1,0.2-0.1,0.4-0.1
	c0.1,0,0.2,0.1,0.3,0.2c0.1,0.1,0.1,0.2,0.2,0.3c0,0.1,0,0.2-0.1,0.3c-0.8,1-1.6,1.7-2.6,2.1s-2.1,0.6-3.6,0.6
	c-1.4,0-2.7-0.2-3.7-0.6s-1.9-1-2.6-1.8c-0.7-0.8-1.2-1.7-1.5-2.7c-0.3-1-0.5-2.2-0.5-3.4c0-1.2,0.2-2.3,0.6-3.3
	c0.4-1.1,1-2,1.7-2.7c0.7-0.8,1.6-1.4,2.6-1.8c1-0.5,2.1-0.7,3.3-0.7c1,0,1.9,0.2,2.8,0.5c0.8,0.3,1.5,0.8,2.1,1.4
	c0.6,0.6,1,1.3,1.3,2.2c0.3,0.9,0.5,1.8,0.5,2.8c0,0.5-0.2,0.8-0.5,0.8H148.3z M154.9,143.8c0.3,0,0.5-0.1,0.6-0.4
	c0-0.2,0.1-0.5,0.1-0.9c0-0.5-0.1-1-0.2-1.5c-0.2-0.5-0.4-0.9-0.7-1.2c-0.3-0.4-0.6-0.6-1-0.9c-0.4-0.2-0.9-0.3-1.4-0.3
	c-0.6,0-1.2,0.1-1.7,0.3c-0.5,0.2-0.9,0.5-1.2,0.9c-0.3,0.4-0.6,0.8-0.7,1.3c-0.2,0.5-0.3,1-0.4,1.6c0,0.3-0.1,0.5-0.1,0.7
	c0,0.2,0.1,0.3,0.2,0.3H154.9z"/>
<path fill="#9A6CAD" d="M173,138c-0.1,0.3-0.1,0.6-0.2,1s-0.1,0.8-0.1,1.2c0,0.5,0,0.9,0,1.4c0,0.5,0,0.9,0,1.1c0,0.1,0,0.1-0.1,0.2
	c-0.1,0-0.2,0.1-0.3,0.1c-0.1,0-0.2,0-0.3,0c-0.1,0-0.2-0.1-0.2-0.2c-0.3-1.3-0.7-2.2-1.3-2.9s-1.6-1-2.9-1c-0.9,0-1.6,0.2-2.2,0.7
	c-0.6,0.4-0.9,1-0.9,1.8c0,0.6,0.2,1.1,0.7,1.4c0.5,0.3,1.1,0.6,1.9,0.9c0.3,0.1,0.7,0.3,1.2,0.5s0.8,0.3,1.1,0.5
	c0.6,0.3,1.2,0.6,1.7,0.9c0.5,0.3,1,0.7,1.4,1.1c0.4,0.4,0.7,0.9,0.9,1.4c0.2,0.5,0.3,1.1,0.3,1.8c0,0.9-0.2,1.7-0.6,2.3
	c-0.4,0.6-0.9,1.1-1.5,1.5c-0.6,0.4-1.3,0.6-2.1,0.8c-0.8,0.2-1.5,0.3-2.3,0.3c-0.6,0-1.3-0.1-2.1-0.2c-0.8-0.1-1.4-0.3-2-0.6
	c-0.1,0-0.3,0-0.5,0.1c-0.2,0.1-0.3,0.3-0.3,0.5c0,0.1-0.1,0.1-0.2,0.1c-0.1,0-0.2,0-0.3,0c-0.1,0-0.2,0-0.3-0.1
	c-0.1,0-0.1-0.1-0.1-0.2c0-0.2,0-0.5,0.1-0.8c0-0.3,0.1-0.6,0.1-0.9s0-0.6-0.1-1c0-0.3-0.1-0.7-0.1-1s-0.1-0.6-0.1-0.9
	c0-0.3,0-0.5,0-0.6c0-0.1,0-0.2,0.1-0.2c0.1,0,0.2-0.1,0.3-0.1c0.1,0,0.2,0,0.3,0c0.1,0,0.2,0.1,0.2,0.2c0.2,0.7,0.4,1.3,0.6,1.8
	c0.3,0.5,0.6,1,1,1.3c0.4,0.4,0.9,0.6,1.4,0.8c0.6,0.2,1.2,0.3,2,0.3c0.9,0,1.6-0.2,2.1-0.7c0.5-0.5,0.8-1.2,0.8-2
	c0-0.8-0.3-1.4-0.8-1.8c-0.5-0.4-1.2-0.8-1.9-1.2c-0.3-0.1-0.7-0.3-1-0.4c-0.3-0.1-0.7-0.3-1.1-0.4c-0.5-0.2-1.1-0.4-1.6-0.7
	c-0.5-0.2-1-0.5-1.4-0.8c-0.4-0.3-0.7-0.8-1-1.3s-0.4-1.1-0.4-1.9c0-0.9,0.2-1.6,0.6-2.2c0.4-0.6,0.9-1.1,1.4-1.5
	c0.6-0.4,1.2-0.6,2-0.8s1.4-0.3,2.1-0.3c0.7,0,1.3,0.1,1.8,0.2c0.5,0.2,1.1,0.4,1.7,0.8c0.1,0,0.2,0,0.4,0c0.2-0.1,0.3-0.3,0.4-0.6
	c0-0.1,0.1-0.2,0.2-0.2c0.1,0,0.2,0,0.4,0c0.1,0,0.2,0,0.3,0.1C172.9,137.8,173,137.9,173,138z"/>
<line fill="#2D0C3E" x1="24.1" y1="108" x2="91.3" y2="108"/>
<line fill="#2E063F" x1="126.5" y1="108" x2="191.8" y2="108"/>
<polygon fill="#2E063F" points="118.1,121.4 109.5,116.8 100.8,121.3 102.5,111.6 95.6,104.7 105.3,103.4 109.7,94.6 113.9,103.4 
	123.6,104.9 116.6,111.7 "/>
</svg>
